<?xml version="1.0" encoding="utf-8"?>
<!-- Generator: Adobe Illustrator 16.0.4, SVG Export Plug-In . SVG Version: 6.00 Build 0)  -->
<!DOCTYPE svg PUBLIC "-//W3C//DTD SVG 1.1//EN" "http://www.w3.org/Graphics/SVG/1.1/DTD/svg11.dtd">
<svg version="1.1" id="Layer_1" xmlns="http://www.w3.org/2000/svg" xmlns:xlink="http://www.w3.org/1999/xlink" x="0px" y="0px"
	 width="192px" height="128px" viewBox="0 0 192 128" enable-background="new 0 0 192 128" xml:space="preserve">
<g>
	<rect x="131.2" y="69.4" fill="none" stroke="#4591CE" stroke-width="1.6" stroke-miterlimit="10" width="18.3" height="33.6"/>
	<g>
		<path fill="#4591CE" d="M145.8,76v21.3h-10.9V76H145.8 M147.4,74.4h-14.1v24.5h14.1V74.4L147.4,74.4z"/>
	</g>
	<line fill="none" stroke="#4591CE" stroke-width="1.6" stroke-miterlimit="10" x1="137.7" y1="72.5" x2="143" y2="72.5"/>
</g>
<g>
	<rect x="73" y="5.7" fill="none" stroke="#4591CE" stroke-width="1.6" stroke-miterlimit="10" width="21.8" height="32.8"/>
	<line fill="none" stroke="#4591CE" stroke-width="1.6" stroke-miterlimit="10" x1="73" y1="12.2" x2="94.9" y2="12.2"/>
	<line fill="none" stroke="#4591CE" stroke-width="1.6" stroke-miterlimit="10" x1="73" y1="18.8" x2="94.9" y2="18.8"/>
	<line fill="none" stroke="#4591CE" stroke-width="1.6" stroke-miterlimit="10" x1="73" y1="25.3" x2="94.9" y2="25.3"/>
	<line fill="none" stroke="#4591CE" stroke-width="1.6" stroke-miterlimit="10" x1="73" y1="31.9" x2="94.9" y2="31.9"/>
	<line fill="none" stroke="#4591CE" stroke-width="1.6" stroke-miterlimit="10" x1="83.9" y1="8.9" x2="92.3" y2="8.9"/>
	<line fill="none" stroke="#4591CE" stroke-width="1.6" stroke-miterlimit="10" x1="80.2" y1="8.9" x2="82.3" y2="8.9"/>
	<line fill="none" stroke="#4591CE" stroke-width="1.6" stroke-miterlimit="10" x1="80.2" y1="15.5" x2="82.3" y2="15.5"/>
	<line fill="none" stroke="#4591CE" stroke-width="1.6" stroke-miterlimit="10" x1="80.2" y1="15.5" x2="82.3" y2="15.5"/>
	<line fill="none" stroke="#4591CE" stroke-width="1.6" stroke-miterlimit="10" x1="80.2" y1="22.1" x2="82.3" y2="22.1"/>
	<line fill="none" stroke="#4591CE" stroke-width="1.6" stroke-miterlimit="10" x1="80.2" y1="28.6" x2="82.3" y2="28.6"/>
	<line fill="none" stroke="#4591CE" stroke-width="1.6" stroke-miterlimit="10" x1="80.2" y1="35.2" x2="82.3" y2="35.2"/>
	<line fill="none" stroke="#4591CE" stroke-width="1.6" stroke-miterlimit="10" x1="83.9" y1="15.5" x2="92.3" y2="15.5"/>
	<line fill="none" stroke="#4591CE" stroke-width="1.6" stroke-miterlimit="10" x1="83.9" y1="22.1" x2="92.3" y2="22.1"/>
	<line fill="none" stroke="#4591CE" stroke-width="1.6" stroke-miterlimit="10" x1="83.9" y1="28.6" x2="92.3" y2="28.6"/>
	<line fill="none" stroke="#4591CE" stroke-width="1.6" stroke-miterlimit="10" x1="83.9" y1="35.2" x2="92.3" y2="35.2"/>
</g>
<g>
	<rect x="34.8" y="43.5" fill="none" stroke="#4591CE" stroke-width="1.6" stroke-miterlimit="10" width="26.2" height="16.8"/>
	<polyline fill="none" stroke="#4591CE" stroke-width="1.6" stroke-miterlimit="10" points="34.8,43.5 34.8,39.9 45.5,39.9 
		47.1,43.5 	"/>
</g>
<g>
	<line fill="none" stroke="#4591CE" stroke-width="1.6" stroke-miterlimit="10" x1="91.1" y1="103.7" x2="105.7" y2="103.7"/>
	<line fill="none" stroke="#4591CE" stroke-width="1.6" stroke-miterlimit="10" x1="91.1" y1="108.8" x2="105.7" y2="108.8"/>
	<line fill="none" stroke="#4591CE" stroke-width="1.6" stroke-miterlimit="10" x1="91.1" y1="96.8" x2="97.3" y2="96.8"/>
	<line fill="none" stroke="#4591CE" stroke-width="1.6" stroke-miterlimit="10" x1="91.1" y1="113.9" x2="105.7" y2="113.9"/>
	<polyline fill="none" stroke="#4591CE" stroke-width="1.6" stroke-miterlimit="10" points="109.8,98.8 102.2,98.8 102.2,91.2 	"/>
	<polygon fill="none" stroke="#4591CE" stroke-width="1.6" stroke-miterlimit="10" points="109.8,119.3 87,119.3 87,91.2 
		102.2,91.2 109.8,98.8 	"/>
</g>
<g>
	<path fill="none" stroke="#4591CE" stroke-width="1.6" stroke-miterlimit="10" d="M50.6,78.6c-1.4-1.4-3.5-1.8-5.3-1l3.9,3.9
		l-0.5,2l-2,0.5l-3.9-3.9c-0.8,1.7-0.4,3.9,1,5.3c1.4,1.4,3.5,1.8,5.2,1c0,0,0.9-0.5,1.5-1.1s1-1.5,1-1.5
		C52.4,82.2,52,80.1,50.6,78.6z"/>
	<line fill="none" stroke="#4591CE" stroke-width="1.6" stroke-miterlimit="10" x1="51.7" y1="83.7" x2="63.4" y2="95.3"/>
	<line fill="none" stroke="#4591CE" stroke-width="1.6" stroke-miterlimit="10" x1="60.5" y1="98.2" x2="48.9" y2="86.5"/>
</g>
<g>
	<polygon fill="none" stroke="#4591CE" stroke-width="1.6" stroke-miterlimit="10" points="71,77.7 70.2,76.9 69.4,76.1 66,78.6 
		66,80.1 66.5,80.6 67,81.1 68.5,81.1 	"/>
	<line fill="none" stroke="#4591CE" stroke-width="1.6" stroke-miterlimit="10" x1="67.3" y1="81.1" x2="60.5" y2="87.9"/>
	<line fill="none" stroke="#4591CE" stroke-width="1.6" stroke-miterlimit="10" x1="59.2" y1="86.6" x2="65.9" y2="79.8"/>
	<polyline fill="none" stroke="#4591CE" stroke-width="1.6" stroke-miterlimit="10" points="55.8,87.7 57.9,85.5 61.5,89.2 
		59.4,91.3 	"/>
	<polyline fill="none" stroke="#4591CE" stroke-width="1.6" stroke-miterlimit="10" points="56.5,94.2 47.7,103 44.1,99.4 
		52.9,90.6 	"/>
</g>
<circle fill="none" stroke="#4591CE" stroke-width="1.6" stroke-miterlimit="10" cx="64.3" cy="99.1" r="3.9"/>
<circle fill="none" stroke="#4591CE" stroke-width="1.6" stroke-miterlimit="10" cx="64.3" cy="99.1" r="1.5"/>
<polygon fill="none" stroke="#4591CE" stroke-width="1.6" stroke-miterlimit="10" points="149.9,47.1 149.9,50.7 145.2,47.1 
	128.4,47.1 128.4,34 153.9,34 153.9,47.1 "/>
<line fill="none" stroke="#4591CE" stroke-width="1.6" stroke-miterlimit="10" x1="133.4" y1="37.4" x2="149.2" y2="37.4"/>
<line fill="none" stroke="#4591CE" stroke-width="1.6" stroke-miterlimit="10" x1="133.4" y1="40.4" x2="149.2" y2="40.4"/>
<line fill="none" stroke="#4591CE" stroke-width="1.6" stroke-miterlimit="10" x1="133.4" y1="43.5" x2="140.7" y2="43.5"/>
<line fill="none" stroke="#4591CE" stroke-width="1.6" stroke-miterlimit="10" x1="123.8" y1="24.5" x2="139.6" y2="24.5"/>
<line fill="none" stroke="#4591CE" stroke-width="1.6" stroke-miterlimit="10" x1="123.8" y1="27.4" x2="136.9" y2="27.4"/>
<polygon fill="none" stroke="#4591CE" stroke-width="1.6" stroke-miterlimit="10" points="126.9,30.9 122.9,34.3 122.9,30.9 
	118.8,30.9 118.8,21.1 144.3,21.1 144.3,30.9 "/>
<path fill="none" stroke="#4591CE" stroke-width="1.6" stroke-miterlimit="10" d="M53.8,41.1c4-7.3,9.7-13.4,16.7-17.8"/>
<path fill="none" stroke="#4591CE" stroke-width="1.6" stroke-miterlimit="10" d="M49.2,75.1c-0.8-3.5-1.2-7.2-1.2-11
	c0-0.7,0-1.4,0-2"/>
<path fill="none" stroke="#4591CE" stroke-width="1.6" stroke-miterlimit="10" d="M84.4,111.1c-5.6-1.4-10.8-3.8-15.5-7"/>
<path fill="none" stroke="#4591CE" stroke-width="1.6" stroke-miterlimit="10" d="M128.6,100.2c-4.8,4.3-10.5,7.7-16.8,9.8"/>
<path fill="none" stroke="#4591CE" stroke-width="1.6" stroke-miterlimit="10" d="M142.5,49.7c1.4,4.6,2.2,9.4,2.2,14.5
	c0,1,0,1.9-0.1,2.8"/>
<path fill="none" stroke="#4591CE" stroke-width="1.6" stroke-miterlimit="10" d="M97.2,15.8c6.8,0.1,13.3,1.7,19.2,4.3"/>
</svg>
