<?xml version="1.0" encoding="utf-8"?>
<!-- Generator: Adobe Illustrator 16.0.4, SVG Export Plug-In . SVG Version: 6.00 Build 0)  -->
<!DOCTYPE svg PUBLIC "-//W3C//DTD SVG 1.1//EN" "http://www.w3.org/Graphics/SVG/1.1/DTD/svg11.dtd">
<svg version="1.1" id="Layer_1" xmlns="http://www.w3.org/2000/svg" xmlns:xlink="http://www.w3.org/1999/xlink" x="0px" y="0px"
	 width="192px" height="128px" viewBox="0 0 192 128" enable-background="new 0 0 192 128" xml:space="preserve">
<g>
	<path fill="#FFFFFF" stroke="#4591CE" stroke-width="1.6" stroke-miterlimit="10" d="M32.4,58.8c0,0,55,0,59.3,0s11.9-3.1,10-12.8
		s-14.5-7-14.5-7s3.3-9.5-5.1-14.5c-6.2-3.6-12.9,0.1-12.9,0.1S62.6,7.8,45.4,13.6c-17.2,5.8-13.1,23.6-13.1,23.6
		s-14.2,2.5-12.7,13.3C21.2,59.1,32.4,58.8,32.4,58.8z"/>
	<g>
		<polyline fill="#FFFFFF" stroke="#4591CE" stroke-width="1.6" stroke-miterlimit="10" points="107,97 107,108.4 125.2,108.4 
			125.2,111.3 68.1,111.3 68.1,108.4 86.3,108.4 86.3,97 		"/>
		<g>
			<path fill="#FFFFFF" d="M149.4,95.4c0,0.9-0.7,1.6-1.6,1.6H45.6c-0.9,0-1.6-0.7-1.6-1.6V29.7c0-0.9,0.7-1.6,1.6-1.6h102.2
				c0.9,0,1.6,0.7,1.6,1.6V95.4z"/>
			<path fill="none" stroke="#4591CE" stroke-width="1.6" stroke-miterlimit="10" d="M149.4,95.4c0,0.9-0.7,1.6-1.6,1.6H45.6
				c-0.9,0-1.6-0.7-1.6-1.6V29.7c0-0.9,0.7-1.6,1.6-1.6h102.2c0.9,0,1.6,0.7,1.6,1.6V95.4z"/>
		</g>
		<g>
			<path fill="#FFFFFF" d="M144.5,83.3c0,0.9-0.7,1.6-1.6,1.6H50.4c-0.9,0-1.6-0.7-1.6-1.6v-49c0-0.9,0.7-1.6,1.6-1.6H143
				c0.9,0,1.6,0.7,1.6,1.6V83.3z"/>
			<path fill="none" stroke="#4591CE" stroke-width="1.6" stroke-miterlimit="10" d="M144.5,83.3c0,0.9-0.7,1.6-1.6,1.6H50.4
				c-0.9,0-1.6-0.7-1.6-1.6v-49c0-0.9,0.7-1.6,1.6-1.6H143c0.9,0,1.6,0.7,1.6,1.6V83.3z"/>
		</g>
	</g>
	<g>
		<circle fill="#FFFFFF" stroke="#4591CE" stroke-width="1.6" stroke-miterlimit="10" cx="149.4" cy="67.1" r="21.3"/>
		<g>
			<path fill="#FFFFFF" stroke="#4591CE" stroke-width="1.6" stroke-miterlimit="10" d="M136.8,68.9l10,9.5L165,61.6l-4.4-4
				l-13.9,13l-5.7-5.5L136.8,68.9z"/>
		</g>
	</g>
</g>
</svg>
