<?xml version="1.0" encoding="utf-8"?>
<!-- Generator: Adobe Illustrator 16.0.4, SVG Export Plug-In . SVG Version: 6.00 Build 0)  -->
<!DOCTYPE svg PUBLIC "-//W3C//DTD SVG 1.1//EN" "http://www.w3.org/Graphics/SVG/1.1/DTD/svg11.dtd">
<svg version="1.1" id="Layer_1" xmlns="http://www.w3.org/2000/svg" xmlns:xlink="http://www.w3.org/1999/xlink" x="0px" y="0px"
	 width="192px" height="128px" viewBox="0 0 192 128" enable-background="new 0 0 192 128" xml:space="preserve">
<g>
	<polygon fill="none" stroke="#4591CE" stroke-width="1.6" stroke-miterlimit="10" points="80.1,57.6 96.3,48.3 112.4,57.6 
		112.4,76.3 96.3,85.6 80.1,76.3 	"/>
	<polyline fill="none" stroke="#4591CE" stroke-width="1.6" stroke-miterlimit="10" points="64.8,48.8 70.7,57.6 80.1,57.6 	"/>
	<line fill="none" stroke="#4591CE" stroke-width="1.6" stroke-miterlimit="10" x1="112.3" y1="66.2" x2="128.7" y2="66.2"/>
	<g>
		<rect x="128.8" y="47.6" fill="none" stroke="#4591CE" stroke-width="1.6" stroke-miterlimit="10" width="18.9" height="28.4"/>
		<line fill="none" stroke="#4591CE" stroke-width="1.6" stroke-miterlimit="10" x1="128.8" y1="53.3" x2="147.7" y2="53.3"/>
		<line fill="none" stroke="#4591CE" stroke-width="1.6" stroke-miterlimit="10" x1="128.8" y1="59" x2="147.7" y2="59"/>
		<line fill="none" stroke="#4591CE" stroke-width="1.6" stroke-miterlimit="10" x1="128.8" y1="64.7" x2="147.7" y2="64.7"/>
		<line fill="none" stroke="#4591CE" stroke-width="1.6" stroke-miterlimit="10" x1="128.8" y1="70.4" x2="147.7" y2="70.4"/>
		<line fill="none" stroke="#4591CE" stroke-width="1.6" stroke-miterlimit="10" x1="138.3" y1="50.5" x2="145.5" y2="50.5"/>
		<line fill="none" stroke="#4591CE" stroke-width="1.6" stroke-miterlimit="10" x1="135" y1="50.5" x2="136.8" y2="50.5"/>
		<line fill="none" stroke="#4591CE" stroke-width="1.6" stroke-miterlimit="10" x1="135" y1="56.2" x2="136.8" y2="56.2"/>
		<line fill="none" stroke="#4591CE" stroke-width="1.6" stroke-miterlimit="10" x1="135" y1="56.2" x2="136.8" y2="56.2"/>
		<line fill="none" stroke="#4591CE" stroke-width="1.6" stroke-miterlimit="10" x1="135" y1="61.9" x2="136.8" y2="61.9"/>
		<line fill="none" stroke="#4591CE" stroke-width="1.6" stroke-miterlimit="10" x1="135" y1="67.5" x2="136.8" y2="67.5"/>
		<line fill="none" stroke="#4591CE" stroke-width="1.6" stroke-miterlimit="10" x1="135" y1="73.2" x2="136.8" y2="73.2"/>
		<line fill="none" stroke="#4591CE" stroke-width="1.6" stroke-miterlimit="10" x1="138.3" y1="56.2" x2="145.5" y2="56.2"/>
		<line fill="none" stroke="#4591CE" stroke-width="1.6" stroke-miterlimit="10" x1="138.3" y1="61.9" x2="145.5" y2="61.9"/>
		<line fill="none" stroke="#4591CE" stroke-width="1.6" stroke-miterlimit="10" x1="138.3" y1="67.5" x2="145.5" y2="67.5"/>
		<line fill="none" stroke="#4591CE" stroke-width="1.6" stroke-miterlimit="10" x1="138.3" y1="73.2" x2="145.5" y2="73.2"/>
	</g>
	<path fill="none" stroke="#4591CE" stroke-width="1.6" stroke-miterlimit="10" d="M74.9,39.8h1.4c2.2,0,4,1.3,4.9,3.1
		c0.2,0.4,0.4,0.8,0.5,1.3c0.1,0.6,0.2,1.7,0.2,1.7v2.9c0,0-34.7,0-35.3,0c-1.7,0-5.5,0-5.5,0s0-3.5,0-3.5c0-3,2.5-5.5,5.5-5.5
		c0.2,0,0.3,0,0.5,0c-0.1-0.4-0.1-0.9-0.1-1.3c0-1,0.1-1.9,0.4-2.8c0.4-2.7,1.9-5.9,6.5-7.5c1.4-0.5,2.6-0.6,3.7-0.6
		c0.1,0,0.2,0,0.3,0c3.9,0,7.3,2,9.2,5.1c0.2-0.1,0.5-0.2,0.8-0.2c0.5-0.1,1-0.2,1.5-0.2c2.8,0,5,2,5.4,4.7c0.1,0.4,0.1,0.9,0.1,1.3
		L74.9,39.8z"/>
	<polyline fill="none" stroke="#4591CE" stroke-width="1.6" stroke-miterlimit="10" points="88.2,81 81.1,91.6 71.1,91.6 	"/>
	<polyline fill="none" stroke="#4591CE" stroke-width="1.6" stroke-miterlimit="10" points="104.8,53.1 110.8,43.5 110.8,39.5 	"/>
	<g>
		<g>
			<path fill="#4591CE" d="M62.3,75.3v6.8h8.5v18.8H50.6V75.3H62.3 M63.9,73.7h-1.6H50.6H49v1.6v25.5v1.6h1.6h20.2h1.6v-1.6V82.1
				v-1.6h-1.6h-6.9v-5.1V73.7L63.9,73.7z"/>
		</g>
		<line fill="none" stroke="#4591CE" stroke-width="1.6" stroke-miterlimit="10" x1="54.1" y1="79.1" x2="59.1" y2="79.1"/>
		<line fill="none" stroke="#4591CE" stroke-width="1.6" stroke-miterlimit="10" x1="54.1" y1="82.1" x2="59.1" y2="82.1"/>
		<line fill="none" stroke="#4591CE" stroke-width="1.6" stroke-miterlimit="10" x1="54.1" y1="85.1" x2="59.1" y2="85.1"/>
		<line fill="none" stroke="#4591CE" stroke-width="1.6" stroke-miterlimit="10" x1="54.1" y1="88.1" x2="59.1" y2="88.1"/>
		<line fill="none" stroke="#4591CE" stroke-width="1.6" stroke-miterlimit="10" x1="54.1" y1="91.1" x2="59.1" y2="91.1"/>
		<line fill="none" stroke="#4591CE" stroke-width="1.6" stroke-miterlimit="10" x1="54.1" y1="94.1" x2="59.1" y2="94.1"/>
		<line fill="none" stroke="#4591CE" stroke-width="1.6" stroke-miterlimit="10" x1="54.1" y1="97.1" x2="59.1" y2="97.1"/>
		<line fill="none" stroke="#4591CE" stroke-width="1.6" stroke-miterlimit="10" x1="62.3" y1="85.1" x2="67.3" y2="85.1"/>
		<line fill="none" stroke="#4591CE" stroke-width="1.6" stroke-miterlimit="10" x1="62.3" y1="88.1" x2="67.3" y2="88.1"/>
		<line fill="none" stroke="#4591CE" stroke-width="1.6" stroke-miterlimit="10" x1="62.3" y1="91.1" x2="67.3" y2="91.1"/>
		<line fill="none" stroke="#4591CE" stroke-width="1.6" stroke-miterlimit="10" x1="62.3" y1="94.1" x2="67.3" y2="94.1"/>
		<line fill="none" stroke="#4591CE" stroke-width="1.6" stroke-miterlimit="10" x1="62.3" y1="97.1" x2="67.3" y2="97.1"/>
	</g>
	<g>
		<rect x="97.1" y="16.2" fill="none" stroke="#4591CE" stroke-width="1.6" stroke-miterlimit="10" width="32.4" height="23.1"/>
		<line fill="none" stroke="#4591CE" stroke-width="1.6" stroke-miterlimit="10" x1="99.4" y1="18.7" x2="108.4" y2="18.7"/>
		<line fill="none" stroke="#4591CE" stroke-width="1.6" stroke-miterlimit="10" x1="97.6" y1="27.6" x2="128.8" y2="27.6"/>
		<line fill="none" stroke="#4591CE" stroke-width="1.6" stroke-miterlimit="10" x1="100.4" y1="33.4" x2="110.3" y2="33.4"/>
		<line fill="none" stroke="#4591CE" stroke-width="1.6" stroke-miterlimit="10" x1="100.4" y1="30.8" x2="110.3" y2="30.8"/>
		<line fill="none" stroke="#4591CE" stroke-width="1.6" stroke-miterlimit="10" x1="100.4" y1="36" x2="110.3" y2="36"/>
		<rect x="113.6" y="30.8" fill="none" stroke="#4591CE" stroke-width="1.6" stroke-miterlimit="10" width="11.8" height="5.3"/>
	</g>
	<polyline fill="none" stroke="#4591CE" stroke-width="1.6" stroke-miterlimit="10" points="129.2,24 125.6,20.4 118.7,27.3 	"/>
	<line fill="none" stroke="#4591CE" stroke-width="1.6" stroke-miterlimit="10" x1="104.1" y1="22.2" x2="115.5" y2="22.2"/>
	<line fill="none" stroke="#4591CE" stroke-width="1.6" stroke-miterlimit="10" x1="104.1" y1="24.3" x2="112.1" y2="24.3"/>
	<path fill="none" stroke="#4591CE" stroke-width="1.6" stroke-miterlimit="10" d="M122.3,23.8c0,0,1.3,1.4,3.4,1.4
		c2.1,0,3.3-1.4,3.3-1.4"/>
	<line fill="none" stroke="#4591CE" stroke-width="1.6" stroke-miterlimit="10" x1="116.3" y1="33.4" x2="122.8" y2="33.4"/>
	<polyline fill="none" stroke="#4591CE" stroke-width="1.6" stroke-miterlimit="10" points="104,80.9 112.5,91.8 117.5,91.8 	"/>
	<g>
		<g>
			<path fill="#4591CE" d="M133.4,81.4v29.1h-15.9V81.4H133.4 M135,79.8h-1.6h-15.9h-1.6v1.6v29.1v1.6h1.6h15.9h1.6v-1.6V81.4V79.8
				L135,79.8z"/>
		</g>
		<g>
			<path fill="#4591CE" d="M130,87.3v18.1h-9V87.3H130 M131.6,85.7h-12.2V107h12.2V85.7L131.6,85.7z"/>
		</g>
		<line fill="none" stroke="#4591CE" stroke-width="1.6" stroke-miterlimit="10" x1="123.1" y1="83.5" x2="127.8" y2="83.5"/>
	</g>
</g>
</svg>
