<?xml version="1.0" encoding="utf-8"?>
<!-- Generator: Adobe Illustrator 16.0.4, SVG Export Plug-In . SVG Version: 6.00 Build 0)  -->
<!DOCTYPE svg PUBLIC "-//W3C//DTD SVG 1.1//EN" "http://www.w3.org/Graphics/SVG/1.1/DTD/svg11.dtd">
<svg version="1.1" id="Layer_1" xmlns="http://www.w3.org/2000/svg" xmlns:xlink="http://www.w3.org/1999/xlink" x="0px" y="0px"
	 width="192px" height="128px" viewBox="0 0 192 128" enable-background="new 0 0 192 128" xml:space="preserve">
<g>
	<g>
		<circle fill="#FFFFFF" stroke="#4591CE" stroke-width="1.6" stroke-miterlimit="10" cx="96.1" cy="71.2" r="40.8"/>
		<g>
			<rect x="88.5" y="14.4" fill="#FFFFFF" width="15.3" height="7.7"/>
			<path fill="#4591CE" d="M103,15.2v6.1H89.3v-6.1H103 M104.6,13.6H103H89.3h-1.6v1.6v6.1v1.6h1.6H103h1.6v-1.6v-6.1V13.6
				L104.6,13.6z"/>
		</g>
		
			<rect x="64.6" y="37.1" transform="matrix(0.7169 -0.6972 0.6972 0.7169 -8.4765 57.6965)" fill="#FFFFFF" stroke="#4591CE" stroke-width="1.6" stroke-miterlimit="10" width="4.3" height="4.3"/>
		<g>
			<polygon fill="#FFFFFF" points="57.6,37.4 56.1,38.8 53.9,36.5 64.3,26.5 66.5,28.7 65.5,29.7 69.3,33.6 61.4,41.3 			"/>
			<path fill="#4591CE" d="M64.2,27.6l1.1,1.1l-1,1l3.8,3.9l-6.7,6.6l-3.8-3.9l-1.5,1.4L55,36.5L64.2,27.6 M64.3,25.3l-1.1,1.1
				l-9.2,9l-1.1,1.1l1.1,1.1l1.1,1.1l1.1,1.1l1.1-1.1l0.3-0.3l2.7,2.8l1.1,1.1l1.1-1.1l6.7-6.6l1.1-1.1l-1.1-1.1l-2.7-2.8l1-1
				l-1.1-1.1l-1.1-1.1L64.3,25.3L64.3,25.3z"/>
		</g>
		<rect x="93.5" y="22.1" fill="#FFFFFF" stroke="#4591CE" stroke-width="1.6" stroke-miterlimit="10" width="5.2" height="8.3"/>
		<g>
			<line fill="#FFFFFF" stroke="#4591CE" stroke-width="1.6" stroke-miterlimit="10" x1="96.1" y1="35.3" x2="96.1" y2="42.3"/>
			<line fill="#FFFFFF" stroke="#4591CE" stroke-width="1.6" stroke-miterlimit="10" x1="96.1" y1="100" x2="96.1" y2="107"/>
		</g>
		<g>
			<line fill="#FFFFFF" stroke="#4591CE" stroke-width="1.6" stroke-miterlimit="10" x1="126.9" y1="52.8" x2="120.9" y2="56.4"/>
			<line fill="#FFFFFF" stroke="#4591CE" stroke-width="1.6" stroke-miterlimit="10" x1="71.4" y1="86" x2="65.4" y2="89.6"/>
		</g>
		<g>
			<line fill="#FFFFFF" stroke="#4591CE" stroke-width="1.6" stroke-miterlimit="10" x1="77.7" y1="40.4" x2="81.3" y2="46.4"/>
			<line fill="#FFFFFF" stroke="#4591CE" stroke-width="1.6" stroke-miterlimit="10" x1="110.9" y1="95.9" x2="114.5" y2="101.9"/>
		</g>
		<g>
			<line fill="#FFFFFF" stroke="#4591CE" stroke-width="1.6" stroke-miterlimit="10" x1="114.1" y1="40.1" x2="110.5" y2="46.2"/>
			<line fill="#FFFFFF" stroke="#4591CE" stroke-width="1.6" stroke-miterlimit="10" x1="81.7" y1="96.1" x2="78.2" y2="102.2"/>
		</g>
		<g>
			<line fill="#FFFFFF" stroke="#4591CE" stroke-width="1.6" stroke-miterlimit="10" x1="65.1" y1="53.2" x2="71.2" y2="56.8"/>
			<line fill="#FFFFFF" stroke="#4591CE" stroke-width="1.6" stroke-miterlimit="10" x1="121.1" y1="85.6" x2="127.2" y2="89.1"/>
		</g>
		<g>
			<line fill="#FFFFFF" stroke="#4591CE" stroke-width="1.6" stroke-miterlimit="10" x1="60.3" y1="71.2" x2="67.3" y2="71.2"/>
			<line fill="#FFFFFF" stroke="#4591CE" stroke-width="1.6" stroke-miterlimit="10" x1="125" y1="71.2" x2="132" y2="71.2"/>
		</g>
		<polygon fill="#FFFFFF" stroke="#4591CE" stroke-width="1.6" stroke-miterlimit="10" points="93.8,79.5 104.4,54.6 107.7,40.9 
			101,53.3 92.3,78.9 		"/>
	</g>
	<circle fill="#FFFFFF" stroke="#4591CE" stroke-width="1.6" stroke-miterlimit="10" cx="96.1" cy="71.2" r="2.8"/>
</g>
</svg>
