<?xml version="1.0" encoding="utf-8"?>
<!-- Generator: Adobe Illustrator 16.0.4, SVG Export Plug-In . SVG Version: 6.00 Build 0)  -->
<!DOCTYPE svg PUBLIC "-//W3C//DTD SVG 1.1//EN" "http://www.w3.org/Graphics/SVG/1.1/DTD/svg11.dtd">
<svg version="1.1" id="Layer_1" xmlns="http://www.w3.org/2000/svg" xmlns:xlink="http://www.w3.org/1999/xlink" x="0px" y="0px"
	 width="192px" height="128px" viewBox="0 0 192 128" enable-background="new 0 0 192 128" xml:space="preserve">
<g>
	<polygon fill="#FFFFFF" stroke="#4591CE" stroke-width="1.6" stroke-miterlimit="10" points="137.3,89.1 95.4,113.2 53.6,89.1 
		53.6,40.7 95.4,16.5 137.3,40.7 	"/>
	<path fill="#FFFFFF" stroke="#4591CE" stroke-width="1.6" stroke-miterlimit="10" d="M107.7,43.9"/>
	<polyline fill="#FFFFFF" stroke="#4591CE" stroke-width="1.6" stroke-miterlimit="10" points="137.5,40.8 95.4,65.1 53.4,40.8 	"/>
	<line fill="#FFFFFF" stroke="#4591CE" stroke-width="1.6" stroke-miterlimit="10" x1="95.4" y1="65.1" x2="95.4" y2="113.6"/>
	<line fill="#FFFFFF" stroke="#4591CE" stroke-width="1.6" stroke-miterlimit="10" x1="53.6" y1="89.1" x2="95.4" y2="65.1"/>
	<line fill="#FFFFFF" stroke="#4591CE" stroke-width="1.6" stroke-miterlimit="10" x1="53.6" y1="89.1" x2="137.3" y2="89.1"/>
	<line fill="#FFFFFF" stroke="#4591CE" stroke-width="1.6" stroke-miterlimit="10" x1="53.6" y1="89.1" x2="95.4" y2="16.5"/>
	<line fill="#FFFFFF" stroke="#4591CE" stroke-width="1.6" stroke-miterlimit="10" x1="53.6" y1="40.7" x2="137.3" y2="40.7"/>
	<circle fill="#FFFFFF" stroke="#4591CE" stroke-width="1.6" stroke-miterlimit="10" cx="74.1" cy="52.9" r="2.5"/>
	<circle fill="#FFFFFF" stroke="#4591CE" stroke-width="1.6" stroke-miterlimit="10" cx="53.6" cy="40.7" r="2.5"/>
	<circle fill="#FFFFFF" stroke="#4591CE" stroke-width="1.6" stroke-miterlimit="10" cx="53.6" cy="89.1" r="2.5"/>
	<g>
		<g>
			<path fill="#FFFFFF" d="M40.4,81.2C40.4,81.2,40.4,81.3,40.4,81.2l0,5.5c0,0,0,0,0,0l-7.1-5.5c0,0,0,0,0,0H7.9c0,0,0,0,0,0V56.3
				c0,0,0,0,0,0h38.5c0,0,0,0,0,0v24.9c0,0,0,0,0,0H40.4z"/>
			<path fill="none" stroke="#4591CE" stroke-width="1.6" stroke-miterlimit="10" d="M40.4,81.2C40.4,81.2,40.4,81.3,40.4,81.2
				l0,5.5c0,0,0,0,0,0l-7.1-5.5c0,0,0,0,0,0H7.9c0,0,0,0,0,0V56.3c0,0,0,0,0,0h38.5c0,0,0,0,0,0v24.9c0,0,0,0,0,0H40.4z"/>
		</g>
		<line fill="#FFFFFF" stroke="#4591CE" stroke-width="1.6" stroke-miterlimit="10" x1="15.5" y1="62.1" x2="39.3" y2="62.1"/>
		<line fill="#FFFFFF" stroke="#4591CE" stroke-width="1.6" stroke-miterlimit="10" x1="15.5" y1="66.6" x2="39.3" y2="66.6"/>
		<line fill="#FFFFFF" stroke="#4591CE" stroke-width="1.6" stroke-miterlimit="10" x1="15.5" y1="71.1" x2="39.3" y2="71.1"/>
		<line fill="#FFFFFF" stroke="#4591CE" stroke-width="1.6" stroke-miterlimit="10" x1="15.5" y1="75.6" x2="26.4" y2="75.6"/>
	</g>
	<g>
		<g>
			<path fill="#FFFFFF" d="M153.7,31.3C153.7,31.3,153.7,31.3,153.7,31.3l-8.2,7c0,0,0,0,0,0v-6.9c0,0,0,0,0,0h-8.2c0,0,0,0,0,0
				V11.5c0,0,0,0,0,0H189c0,0,0,0,0,0v19.8c0,0,0,0,0,0H153.7z"/>
			<path fill="none" stroke="#4591CE" stroke-width="1.6" stroke-miterlimit="10" d="M153.7,31.3C153.7,31.3,153.7,31.3,153.7,31.3
				l-8.2,7c0,0,0,0,0,0v-6.9c0,0,0,0,0,0h-8.2c0,0,0,0,0,0V11.5c0,0,0,0,0,0H189c0,0,0,0,0,0v19.8c0,0,0,0,0,0H153.7z"/>
		</g>
		<line fill="#FFFFFF" stroke="#4591CE" stroke-width="1.6" stroke-miterlimit="10" x1="147.5" y1="18.4" x2="179.4" y2="18.4"/>
		<line fill="#FFFFFF" stroke="#4591CE" stroke-width="1.6" stroke-miterlimit="10" x1="147.5" y1="24.4" x2="174" y2="24.4"/>
	</g>
	<line fill="#FFFFFF" stroke="#4591CE" stroke-width="1.6" stroke-miterlimit="10" x1="95.4" y1="113.2" x2="137.3" y2="40.7"/>
	<line fill="#FFFFFF" stroke="#4591CE" stroke-width="1.6" stroke-miterlimit="10" x1="81.3" y1="40.7" x2="95.4" y2="65.1"/>
	<circle fill="#FFFFFF" stroke="#4591CE" stroke-width="1.6" stroke-miterlimit="10" cx="81.3" cy="40.7" r="2.5"/>
	<line fill="#FFFFFF" stroke="#4591CE" stroke-width="1.6" stroke-miterlimit="10" x1="95.4" y1="65.4" x2="95.4" y2="16.5"/>
	<circle fill="#FFFFFF" stroke="#4591CE" stroke-width="1.6" stroke-miterlimit="10" cx="95.4" cy="16.5" r="2.5"/>
	<circle fill="#FFFFFF" stroke="#4591CE" stroke-width="1.6" stroke-miterlimit="10" cx="95.4" cy="65.4" r="2.5"/>
</g>
</svg>
