<?xml version="1.0" encoding="utf-8"?>
<!-- Generator: Adobe Illustrator 16.0.4, SVG Export Plug-In . SVG Version: 6.00 Build 0)  -->
<!DOCTYPE svg PUBLIC "-//W3C//DTD SVG 1.1//EN" "http://www.w3.org/Graphics/SVG/1.1/DTD/svg11.dtd">
<svg version="1.1" id="Layer_1" xmlns="http://www.w3.org/2000/svg" xmlns:xlink="http://www.w3.org/1999/xlink" x="0px" y="0px"
	 width="238.235px" height="54px" viewBox="-44.118 -10 238.235 54" enable-background="new -44.118 -10 238.235 54"
	 xml:space="preserve">
<g>
	<g>
		<path fill="#0E64A1" d="M191.797,7.131l-0.491,8.366h-3.446c-5.413,0-8.037,4.265-8.037,8.367v18.373h-9.679V7.131h8.858
			l0.327,4.593c1.806-3.281,5.086-4.593,9.188-4.593H191.797L191.797,7.131z"/>
		<path fill="#0E64A1" d="M126.345,42.237h-9.515V23.864c0-4.102-0.328-8.859-5.741-8.859s-7.218,3.772-7.218,8.367v18.865h-9.678
			V7.131h8.857l0.328,4.593c1.806-2.953,5.413-5.413,10.499-5.413c9.351,0,12.467,6.726,12.467,13.943V42.237L126.345,42.237z"/>
		<path fill="#0E64A1" d="M90.092,34.198l-0.491,7.874c-2.461,0.819-4.267,0.819-6.727,0.819c-8.858,0-11.646-4.101-11.646-12.138
			V-2.547h9.514v9.678h9.515l-0.492,8.366h-8.858v14.271c0,3.281,1.148,5.087,4.266,5.087C86.646,35.019,88.287,34.69,90.092,34.198
			L90.092,34.198z"/>
		<path fill="#0E64A1" d="M68.274,7.131l-0.82,8.366h-2.625c-5.084,0-7.874,4.265-7.874,8.367v18.373h-9.514V7.131H56.3l0.328,4.593
			c1.805-3.281,5.085-4.593,9.187-4.593H68.274L68.274,7.131z"/>
		<path fill="#0E64A1" d="M4.955,38.463c-6.397,3.445-12.959,5.414-21.325,5.086c-15.584-0.492-26.902-10.171-26.902-26.575
			c0-16.404,11.318-26.738,26.902-26.902C-8.496-10.257-1.607-7.96,4.134-3.203l-6.725,6.725C-6.036,0.57-10.957-1.07-16.862-0.742
			c-10.007,0.328-15.912,7.545-15.912,17.225c-0.328,10.497,6.234,17.716,16.404,18.044c4.921,0.329,8.366-0.328,11.319-1.641
			v-10.99h-10.827l0.82-8.858H4.955V38.463L4.955,38.463z"/>
		<path fill="#0E64A1" d="M165.879,28.293h-25.92c0.82,4.265,4.267,7.054,8.696,7.217c4.264,0,6.725-1.312,9.677-4.264l6.233,4.593
			c-4.265,5.413-9.514,7.218-15.584,7.218c-10.497,0-18.371-7.218-18.371-18.372c0-10.827,7.874-18.373,18.045-18.373
			c11.317,0,17.224,6.726,17.224,18.864V28.293L165.879,28.293z M156.528,20.747c-0.328-4.265-3.445-7.054-8.038-7.054
			c-4.593,0.328-7.546,3.281-8.366,7.054H156.528L156.528,20.747z"/>
		<path fill="#0E64A1" d="M41.7,19.271v22.966h-8.366l-0.328-3.446c-2.461,3.281-6.726,4.266-10.99,4.266
			c-6.234,0-12.467-2.954-12.467-10.499C9.22,20.911,22.507,20.092,30.874,20.092h1.64v-0.494c0-3.772-2.46-5.904-7.217-5.904
			c-3.445,0-6.726,1.64-9.515,3.772l-5.413-5.413c4.921-4.101,10.17-5.741,15.583-5.741C36.779,6.312,41.7,11.561,41.7,19.271
			L41.7,19.271z M32.514,27.145h-1.312c-4.265,0-12.466,0-12.139,4.922c0,6.396,13.451,4.264,13.451-3.446V27.145L32.514,27.145z"/>
	</g>
	<g>
		<path fill="#0E64A1" d="M193.272,39.119c0,2.789-2.132,4.922-5.085,4.922c-2.789,0-5.084-2.133-5.084-4.922
			s2.295-4.921,5.084-4.921C191.141,34.198,193.272,36.33,193.272,39.119z M184.415,39.119c0,2.133,1.641,3.938,3.772,3.938
			c2.133,0,3.773-1.805,3.773-3.938c0-2.132-1.641-3.938-3.773-3.938C186.056,35.182,184.415,36.987,184.415,39.119z M187.531,41.58
			h-1.147v-4.921c0.492,0,1.147-0.164,1.804-0.164c0.984,0,1.312,0.164,1.641,0.327c0.328,0.165,0.492,0.493,0.492,0.985
			c0,0.655-0.492,0.983-0.983,1.148l0,0c0.491,0.163,0.655,0.492,0.819,1.146c0.164,0.82,0.329,0.985,0.329,1.149h-1.148
			c-0.165-0.164-0.165-0.655-0.329-1.149c-0.163-0.491-0.328-0.819-0.983-0.819h-0.493V41.58z M187.531,38.956h0.493
			c0.655,0,1.147-0.165,1.147-0.657c0-0.491-0.327-0.819-0.984-0.819c-0.328,0-0.491,0-0.656,0V38.956z"/>
	</g>
</g>
</svg>
